Coordinates
version=1
nRows=8
nColumns=63
inDegrees=yes

Units are S.I. units (second, meters, Newtons, ...)
If the header above contains a line with 'inDegrees', this indicates whether rotational values are in degrees (yes) or radians (no).

endheader
time	pelvis_tilt	pelvis_list	pelvis_rotation	pelvis_tx	pelvis_ty	pelvis_tz	hip_flexion_r	hip_adduction_r	hip_rotation_r	knee_angle_r	knee_angle_r_beta	ankle_angle_r	subtalar_angle_r	mtp_angle_r	hip_flexion_l	hip_adduction_l	hip_rotation_l	knee_angle_l	knee_angle_l_beta	ankle_angle_l	subtalar_angle_l	mtp_angle_l	L5_S1_Flex_Ext	L5_S1_Lat_Bending	L5_S1_axial_rotation	L4_L5_Flex_Ext	L4_L5_Lat_Bending	L4_L5_axial_rotation	L3_L4_Flex_Ext	L3_L4_Lat_Bending	L3_L4_axial_rotation	L2_L3_Flex_Ext	L2_L3_Lat_Bending	L2_L3_axial_rotation	L1_L2_Flex_Ext	L1_L2_Lat_Bending	L1_L2_axial_rotation	L1_T12_Flex_Ext	L1_T12_Lat_Bending	L1_T12_axial_rotation	Abs_r3	Abs_r2	Abs_r1	Abs_t1	Abs_t2	neck_flexion	neck_bending	neck_rotation	arm_flex_r	arm_add_r	arm_rot_r	elbow_flex_r	pro_sup_r	wrist_flex_r	wrist_dev_r	arm_flex_l	arm_add_l	arm_rot_l	elbow_flex_l	pro_sup_l	wrist_flex_l	wrist_dev_l
0.000000	7.177902	-1.166570	104.808802	0.237454	0.686054	0.651709	7.483017	3.273956	-22.658831	16.799195	0.293201	31.478410	3.860085	0.000000	5.304800	-5.945373	11.484674	5.780275	0.100885	35.247187	3.160286	0.000000	0.278066	0.997612	-2.219926	0.516397	1.326824	-2.358671	0.456835	2.425593	-2.358671	0.317802	2.425593	-1.942435	0.258212	2.034330	-1.803690	0.158887	1.545301	-1.664944	1.986199	11.285184	-12.346560	0.000000	0.000000	27.803578	1.514790	9.642473	18.490187	-11.523411	55.485148	39.017576	67.464056	11.442660	3.167783	13.970882	-3.924954	51.354376	39.149749	68.193131	-4.427314	-9.297410
0.016949	7.010147	-1.322376	104.904878	0.237898	0.685622	0.652019	7.669577	3.015093	-22.791133	16.981756	0.296388	31.810465	4.131940	0.000000	5.527960	-5.671676	11.820228	5.944415	0.103750	35.459776	2.664934	0.000000	0.287656	0.966329	-2.277262	0.534207	1.285217	-2.419591	0.472591	2.349531	-2.419591	0.328762	2.349531	-1.992605	0.267118	1.970537	-1.850276	0.164367	1.496843	-1.707947	2.054700	10.931303	-12.665451	0.000000	0.000000	27.837501	1.829126	9.713303	17.965957	-11.177836	53.866130	39.321661	67.319187	11.481379	4.751043	13.967778	-4.045467	50.691501	38.669303	72.180539	-4.243630	-10.079022
0.033898	6.861806	-1.433619	104.973976	0.238300	0.685301	0.652278	7.815469	2.807739	-22.838905	17.136442	0.299087	32.065926	4.252108	0.000000	5.756864	-5.437580	12.071521	6.235399	0.108828	35.647247	2.237243	0.000000	0.293398	0.938591	-2.313434	0.544870	1.248326	-2.458023	0.482024	2.282090	-2.458023	0.335325	2.282090	-2.024254	0.272450	1.913974	-1.879665	0.167648	1.453877	-1.735075	2.095714	10.617527	-12.866623	0.000000	0.000000	27.859861	2.057610	9.696115	17.582092	-10.906310	52.777825	39.513544	66.910218	11.531645	5.976087	14.010875	-4.144034	50.297156	38.260782	75.212251	-4.180231	-10.721251
0.050847	6.732466	-1.505063	105.020319	0.238662	0.685079	0.652494	7.925216	2.647847	-22.813503	17.265702	0.301343	32.252113	4.237883	0.000000	5.989718	-5.240735	12.249377	6.635178	0.115806	35.810629	1.871103	0.000000	0.295758	0.914248	-2.331041	0.549253	1.215950	-2.476731	0.485902	2.222903	-2.476731	0.338022	2.222903	-2.039661	0.274641	1.864335	-1.893971	0.168996	1.416170	-1.748281	2.112573	10.342158	-12.964549	0.000000	0.000000	27.872101	2.210636	9.601705	17.323010	-10.702003	52.160696	39.606271	66.279753	11.590879	6.874642	14.094204	-4.221981	50.142357	37.917236	77.379322	-4.219892	-11.236359
0.067797	6.621715	-1.541471	105.048134	0.238988	0.684943	0.652672	8.003344	2.531369	-22.726279	17.371988	0.303198	32.376346	4.106558	0.000000	6.224729	-5.078794	12.364624	7.125704	0.124367	35.950951	1.560403	0.000000	0.295204	0.893150	-2.332686	0.548223	1.187890	-2.478479	0.484991	2.171606	-2.478479	0.337389	2.171606	-2.041101	0.274126	1.821312	-1.895308	0.168680	1.383490	-1.749515	2.108612	10.103497	-12.973702	0.000000	0.000000	27.875659	2.298598	9.440868	17.173127	-10.558082	51.955209	39.612892	65.470399	11.656501	7.478436	14.211792	-4.280633	50.198120	37.631713	78.772803	-4.345387	-11.636606
0.084746	6.529140	-1.547607	105.061643	0.239278	0.684881	0.652820	8.054374	2.454257	-22.588587	17.457752	0.304695	32.445945	3.875424	0.000000	6.460102	-4.949406	12.428087	7.688929	0.134197	36.069242	1.299035	0.000000	0.292201	0.875148	-2.320972	0.542647	1.163946	-2.466033	0.480057	2.127834	-2.466033	0.333957	2.127834	-2.030851	0.271338	1.784601	-1.885790	0.166964	1.355604	-1.740729	2.087163	9.899845	-12.908551	0.000000	0.000000	27.871976	2.331890	9.224397	17.116860	-10.467715	52.101827	39.546454	64.524759	11.725932	7.819197	14.357668	-4.321313	50.435461	37.397262	79.483749	-4.539493	-11.934253
0.101695	6.454328	-1.528236	105.065071	0.239537	0.684879	0.652946	8.082832	2.412462	-22.411781	17.525444	0.305877	32.468230	3.561775	0.000000	6.694044	-4.850222	12.450592	8.306805	0.144981	36.166533	1.080888	0.000000	0.287217	0.860089	-2.298501	0.533390	1.143919	-2.442157	0.471868	2.091221	-2.442157	0.328260	2.091221	-2.011188	0.266710	1.753894	-1.867532	0.164116	1.332278	-1.723875	2.051561	9.729502	-12.783571	0.000000	0.000000	27.862492	2.320904	8.963087	17.138625	-10.424072	52.541014	39.420005	63.485438	11.796590	7.928653	14.525861	-4.345347	50.825397	37.206932	79.603213	-4.784983	-12.141563
0.118644	6.396865	-1.488122	105.062642	0.239766	0.684925	0.653055	8.093241	2.401936	-22.207214	17.577515	0.306786	32.450522	3.182904	0.000000	6.924761	-4.778894	12.442966	8.961283	0.156404	36.243852	0.899852	0.000000	0.280718	0.847825	-2.267873	0.521321	1.127608	-2.409615	0.461191	2.061402	-2.409615	0.320832	2.061402	-1.984389	0.260674	1.728885	-1.842647	0.160402	1.313281	-1.700905	2.005138	9.590769	-12.613231	0.000000	0.000000	27.848647	2.276036	8.667733	17.222839	-10.420321	53.213236	39.246593	62.395042	11.865897	7.838531	14.710401	-4.354059	51.338944	37.053772	79.222249	-5.064634	-12.270797
